<?xml version="1.0" encoding="UTF-8"?>
<!DOCTYPE svg PUBLIC "-//W3C//DTD SVG 1.1//EN" "http://www.w3.org/Graphics/SVG/1.1/DTD/svg11.dtd">
<!-- Creator: CorelDRAW -->
<svg xmlns="http://www.w3.org/2000/svg" xml:space="preserve" width="5.8752mm" height="5.9052mm" version="1.1" style="shape-rendering:geometricPrecision; text-rendering:geometricPrecision; image-rendering:optimizeQuality; fill-rule:evenodd; clip-rule:evenodd"
viewBox="0 0 12.79 12.85"
 xmlns:xlink="http://www.w3.org/1999/xlink"
 xmlns:xodm="http://www.corel.com/coreldraw/odm/2003">
 <defs>
  <style type="text/css">
   <![CDATA[
    .fil0 {fill:#FEFEFE}
   ]]>
  </style>
 </defs>
 <g id="Camada_x0020_1">
  <metadata id="CorelCorpID_0Corel-Layer"/>
  <path class="fil0" d="M7.29 11.6c-0.31,0.06 -0.59,0.09 -0.74,0.06 -1.13,0 -2.03,-0.24 -2.88,-0.73 -0.12,-0.07 -0.21,-0.1 -0.32,-0.05 -0.58,0.14 -1.14,0.29 -1.71,0.44 -0.12,0.04 -0.13,0.02 -0.1,-0.1 0.15,-0.53 0.29,-1.07 0.46,-1.61 0.04,-0.15 0.03,-0.26 -0.07,-0.38 -1.16,-1.88 -1.1,-4.2 0.19,-5.94 1.35,-1.8 3.2,-2.55 5.4,-2.08 2.17,0.46 3.56,1.87 4.05,4.03 0.7,2.95 -1.29,5.89 -4.28,6.37zm0.77 -2.18c-0.22,0.02 -0.45,-0.03 -0.66,-0.09 -1.46,-0.43 -2.57,-1.32 -3.45,-2.53 -0.33,-0.45 -0.65,-0.93 -0.74,-1.5 -0.13,-0.67 0.07,-1.25 0.58,-1.71 0.17,-0.16 0.65,-0.23 0.85,-0.13 0.06,0.06 0.1,0.11 0.14,0.18 0.18,0.45 0.37,0.87 0.56,1.3 0.03,0.09 0.02,0.18 -0.03,0.27 -0.1,0.2 -0.25,0.36 -0.39,0.52 -0.12,0.11 -0.12,0.23 -0.04,0.35 0.52,0.88 1.23,1.5 2.18,1.87 0.14,0.06 0.24,0.04 0.33,-0.07 0.16,-0.19 0.32,-0.39 0.48,-0.59 0.09,-0.13 0.22,-0.14 0.35,-0.09 0.31,0.15 0.62,0.29 0.92,0.43 0.08,0.04 0.14,0.07 0.21,0.1 0.32,0.16 0.32,0.18 0.28,0.52 -0.04,0.66 -0.55,1 -1.14,1.17 -0.16,0.03 -0.29,0.03 -0.42,0.02zm4.55 -4.5c-0.69,-2.91 -3.2,-4.88 -6.22,-4.93 -0.4,0.01 -0.83,0.05 -1.22,0.13 -4.24,0.84 -6.42,5.52 -4.37,9.3 0.07,0.1 0.07,0.2 0.06,0.31 -0.3,0.97 -0.57,1.98 -0.83,2.96 -0.05,0.18 -0.05,0.18 0.12,0.13 1.03,-0.28 2.06,-0.54 3.09,-0.8 0.09,-0.03 0.15,-0.03 0.23,0.02 1.33,0.67 2.73,0.85 4.19,0.59 3.5,-0.67 5.8,-4.24 4.96,-7.7z"/>
 </g>
</svg>
